# xmcd
#
# Track frame offsets: 
#        150
#        17875
#        36062
#        53312
#        73450
#        90525
#        107475
#        121800
#        142250
#        161900
#        184550
#        202612
#        222125
#        241637
#        262550
#        287100
#
# Disc length: 4057 seconds
#
# Revision: 0
# Processed by: cddbd v1.5.2PL0 Copyright (c) Steve Scherf et al.
# Submitted via: ExactAudioCopy v1.0b4
#
DISCID=d30fd710
DTITLE=Various Artist - Your Favorite Love Songs
DYEAR=1993
DGENRE=Ballad
TTITLE0=Southern Sons - You were there
TTITLE1=Air Supply - Goodbye
TTITLE2=Exposé - I'll never get over you getting over me
TTITLE3=Patty Smith - Sometimes love just ain't enough
TTITLE4=PC Quest - Can't you see?
TTITLE5=Restless Heart - When she cries
TTITLE6=Shai - If I ever fall in love
TTITLE7=Jeremy Jordan - The right kind of love
TTITLE8=Billy Ocean - Everything's so different without you
TTITLE9=Tom Scott and David Pack - Keep this love alive
TTITLE10=Vince Gill - I still believe in you
TTITLE11=Barry Manilow - Another life
TTITLE12=Michael W. Smith and Amy Grant - Somewhere, somehow
TTITLE13=Voices - Yeah, yeah, yeah
TTITLE14=Smokey Mountain - I believe in you
TTITLE15=Ariel Rivera - Without your love
EXTD=
EXTT0=
EXTT1=
EXTT2=
EXTT3=
EXTT4=
EXTT5=
EXTT6=
EXTT7=
EXTT8=
EXTT9=
EXTT10=
EXTT11=
EXTT12=
EXTT13=
EXTT14=
EXTT15=
PLAYORDER=
